Coordinates
version=1
nRows=11
nColumns=40
inDegrees=yes

Units are S.I. units (second, meters, Newtons, ...)
Angles are in degrees.

endheader
time	pelvis_tilt	pelvis_list	pelvis_rotation	pelvis_tx	pelvis_ty	pelvis_tz	hip_flexion_r	hip_adduction_r	hip_rotation_r	knee_angle_r	knee_angle_r_beta	ankle_angle_r	subtalar_angle_r	mtp_angle_r	hip_flexion_l	hip_adduction_l	hip_rotation_l	knee_angle_l	knee_angle_l_beta	ankle_angle_l	subtalar_angle_l	mtp_angle_l	lumbar_extension	lumbar_bending	lumbar_rotation	arm_flex_r	arm_add_r	arm_rot_r	elbow_flex_r	pro_sup_r	wrist_flex_r	wrist_dev_r	arm_flex_l	arm_add_l	arm_rot_l	elbow_flex_l	pro_sup_l	wrist_flex_l	wrist_dev_l
     24.94000000	     -4.71801108	     -3.89878899	     -0.83601047	      0.91957339	      0.93347477	      0.45099464	     28.73247574	     -6.07799780	     -6.45633585	     67.79766089	     67.79766089	      0.76347660	    -17.29128478	      3.35744272	     12.82850997	     -2.77802494	     -6.91203946	     19.35724140	     19.35724140	     13.56239967	    -11.71950796	      2.29461318	     -8.23960967	      5.72734397	      4.18913470	      4.86942409	    -11.39088346	    -10.31285197	     25.87907266	     45.95676688	      0.00000000	      0.00000000	     13.18502353	    -12.66458267	     -2.95039339	     59.04090602	     46.21758434	      0.00000000	      0.00000000
     24.95221429	     -4.78122951	     -4.04435969	     -1.03146680	      0.91804603	      0.93413232	      0.45096090	     29.97153740	     -5.80288641	     -6.80254702	     66.47276062	     66.47276062	      0.79810116	    -17.32039446	      2.58138733	     12.03555734	     -2.90946589	     -7.11579390	     18.61191962	     18.61191962	     13.57209381	    -11.47095972	      2.00220029	     -8.41057454	      5.90238639	      4.17938326	      3.37141227	    -11.25953650	     -9.94978836	     24.95890361	     45.99211965	      0.00000000	      0.00000000	     14.18851063	    -12.88032938	     -3.65419777	     61.27154851	     46.35386530	      0.00000000	      0.00000000
     24.96442857	     -4.83666289	     -4.20708298	     -1.21981158	      0.91657532	      0.93484539	      0.45099758	     31.05521671	     -5.43268406	     -7.12678017	     64.89123316	     64.89123316	      0.99808444	    -17.29449271	      2.62357756	     11.20732630	     -3.05665821	     -7.31928563	     17.82380575	     17.82380575	     13.67092587	    -11.14021334	      2.03360799	     -8.56555940	      6.08880332	      4.24525251	      1.81327982	    -11.13050700	     -9.78963142	     24.17917642	     46.00715978	      0.00000000	      0.00000000	     15.53455631	    -13.01479178	     -4.08795532	     62.58701182	     46.42423454	      0.00000000	      0.00000000
     24.97664286	     -4.84395361	     -4.35483306	     -1.42679230	      0.91507554	      0.93545685	      0.45112851	     31.98040447	     -5.05090801	     -7.43469880	     63.08289675	     63.08289675	      1.13402961	    -17.12033924	      2.68615874	     10.35415818	     -3.19652296	     -7.59286259	     17.06837374	     17.06837374	     13.78027288	    -10.77857783	      1.96083595	     -8.83687729	      6.24219839	      4.48601538	      0.23494570	    -11.02513225	     -9.56568487	     23.39009253	     46.01898323	      0.00000000	      0.00000000	     16.82541024	    -13.08001333	     -4.66815854	     64.29036499	     46.51235847	      0.00000000	      0.00000000
     24.98885714	     -4.84902596	     -4.49240146	     -1.60087882	      0.91372803	      0.93593446	      0.45120365	     32.73776731	     -4.63446001	     -7.66178424	     60.95089452	     60.95089452	      1.20739243	    -16.80183747	      2.73841091	      9.52618682	     -3.32237498	     -7.84503579	     16.36573849	     16.36573849	     13.90258289	    -10.37223679	      1.77600711	     -9.02916080	      6.43580851	      4.54191944	     -1.26257884	    -10.89748520	     -9.29185042	     22.72119054	     46.02363685	      0.00000000	      0.00000000	     17.97773864	    -13.15189949	     -5.36498006	     66.12973209	     46.61143158	      0.00000000	      0.00000000
     25.00107143	     -4.87699412	     -4.61943014	     -1.76160964	      0.91238616	      0.93620467	      0.45139473	     33.37954336	     -4.22258413	     -7.92141818	     58.49350983	     58.49350983	      1.28459138	    -16.31390381	      2.70513975	      8.77212663	     -3.44798752	     -8.12033965	     15.74612713	     15.74612713	     14.01661463	     -9.98390893	      1.53035435	     -9.21945134	      6.57639915	      4.46619459	     -2.64211098	    -10.77603773	     -8.99809780	     22.21365715	     46.02110767	      0.00000000	      0.00000000	     18.98257907	    -13.28479697	     -6.13976713	     67.89989227	     46.71397758	      0.00000000	      0.00000000
     25.01328571	     -4.96205577	     -4.73464138	     -1.88822811	      0.91104220	      0.93616476	      0.45168358	     33.90331367	     -3.82185462	     -8.21370323	     55.62378177	     55.62378177	      1.00806411	    -15.79294843	      1.54005991	      8.14709724	     -3.59571601	     -8.47959748	     15.21571129	     15.21571129	     13.94857728	     -9.51380897	      0.63073658	     -9.36156609	      6.68083250	      3.72298802	     -3.77989423	    -10.71953706	     -7.77989245	     22.24255508	     45.96176818	      0.00000000	      0.00000000	     19.17296405	    -13.55016777	     -8.13733878	     70.82404064	     46.95608617	      0.00000000	      0.00000000
     25.02550000	     -5.02962108	     -4.81338250	     -2.02217411	      0.90979294	      0.93606287	      0.45204814	     34.21169478	     -3.41870800	     -8.46317304	     52.31085863	     52.31085863	      0.57496336	    -15.14781572	     -0.07517372	      7.46978075	     -3.67395249	     -8.71568656	     14.63853416	     14.63853416	     14.00184305	     -9.17767592	      0.19672776	     -9.47291651	      6.76254308	      3.52393259	     -5.20645327	    -10.83055689	     -5.88535649	     22.29437177	     45.88783408	      0.00000000	      0.00000000	     20.03623739	    -13.64435217	     -9.06216504	     72.33049259	     47.13232780	      0.00000000	      0.00000000
     25.03771429	     -5.08277808	     -4.86599048	     -2.14715680	      0.90859187	      0.93580870	      0.45250421	     34.38892547	     -3.04021204	     -8.72347745	     48.76561123	     48.76561123	      0.73528957	    -13.92851325	     -0.17171517	      6.83962525	     -3.73561184	     -8.95774931	     14.19499907	     14.19499907	     14.22499514	     -8.82689151	      0.06816738	     -9.60048661	      6.80739384	      3.51935236	     -6.52274137	    -10.75284390	     -5.64393814	     22.09538713	     45.88524989	      0.00000000	      0.00000000	     21.10785669	    -13.77381708	     -9.41372604	     73.44878754	     47.19532563	      0.00000000	      0.00000000
     25.04992857	     -5.19026432	     -4.94727181	     -2.23327265	      0.90746434	      0.93534436	      0.45303684	     34.40330768	     -2.62296435	     -9.05550093	     44.81895571	     44.81895571	      0.90259381	    -12.49741152	     -0.18599569	      6.32657835	     -3.83880018	     -9.12861548	     13.86159782	     13.86159782	     14.45315029	     -8.54826272	     -0.09572818	     -9.64515819	      6.89877881	      3.37757063	     -7.70833781	    -10.70218084	     -5.57203874	     21.96221455	     45.88387268	      0.00000000	      0.00000000	     22.00617419	    -13.98605692	     -9.75510758	     74.35972642	     47.24520764	      0.00000000	      0.00000000
     25.06214286	     -5.30714100	     -4.95855433	     -2.32576274	      0.90646421	      0.93466097	      0.45366513	     34.24996718	     -2.24227186	     -9.35785712	     40.58955027	     40.58955027	      1.01292265	    -10.87338934	     -0.17748797	      5.81986589	     -3.87007230	     -9.32741099	     13.54063291	     13.54063291	     14.73251924	     -8.24477530	     -0.31647373	     -9.63493805	      6.92025363	      3.23019873	     -8.87330730	    -10.63829309	     -5.54802792	     21.91266550	     45.88087784	      0.00000000	      0.00000000	     22.85010129	    -14.15060585	    -10.09713746	     75.28226882	     47.29359921	      0.00000000	      0.00000000
